    <svg id="SVGRoot" version="1.1" viewBox="-1 -1 138.4212 195.4752" xmlns="http://www.w3.org/2000/svg" preserveAspectRatio="xMidYMid meet">
        <g transform="translate(-58.9 -31.6)">
         <g transform="matrix(.0264 0 0 -.0264 69.9 232)" stroke-width="5.06">
          <g transform="translate(-417 190)" fill-rule="evenodd">
           <path d="m2657 44.6c-208-40.7-410 111-550 247-205 197-385 456-537 696-203 322-383 662-546 1006-184 387-348 784-493 1188-230 641-426 1340-501 2019-55.1 496-59.7 1143 228 1575l0.875 1.32 0.906 1.3c196 282 639 430 957 508 465 114 974 157 1452 156 657-1.67 1880-107 2335-647l8.76-10.4 6.88-11.7c260-442 248-1083 190-1576-79.3-673-273-1363-501-2e3 -257-718-590-1463-993-2111-202-325-639-983-1058-1040" fill="#222222"/>
           <path d="m4880 6690c-697 827-3966 746-4488-5.35-977-1466 1417-6661 2239-6481 955 115 3119 5011 2250 6487" fill="#2b2b2b"/>
           <path d="m3197 6898c0-28.3-4.18-14.4-12.3-49.4-58.4 67.2-107 124-235 124 8.47-102 98.8-139 98.8-259v-74.1c-103-24.1-152-178-194-276-62.5-147-113-159-198-271-59-77.4-118-215-164-306-46.1-92.5-198-171-198-284v-12.4c0-64.6 82.9-146 124-173 20.4 0 137 2.25 147-0.99 47.3-15.2 6.37-85.5 75.1-85.5h12.4c59.7 0 129 163 199 196 94.9 44.4 166 92.5 221 174 162 0 312 66.5 420 124 17.7-66.2 200-301 251-403 73.2-147 132-309 132-523v-296c177 47.1 308 496 427 672 152 225 367 360 610 489-78.6 338-479 671-766 815-176 88.8-360 160-540 251-176 88.7-104 39-204 191-40.8 61.7-149 151-245 151h-37.1c13-55.9 74.1-115 74.1-173" fill="#111111"/>
           <path d="m643 7016c-142-74-251-159-317-254-174-260-245-634-239-1074l3953-3900c201 401 392 843 560 1297l-3957 3932" fill="#111111"/>
           </g>
          </g>
         </g>
       </svg>